<svg width="21" height="20" viewBox="0 0 21 20" fill="none" xmlns="http://www.w3.org/2000/svg">
<g id="carbon:time">
<path id="Vector" d="M10.5 18.75C8.76942 18.75 7.07769 18.2368 5.63876 17.2754C4.19983 16.3139 3.07832 14.9473 2.41606 13.3485C1.75379 11.7496 1.58051 9.9903 1.91813 8.29296C2.25575 6.59563 3.08911 5.03653 4.31282 3.81282C5.53653 2.58911 7.09563 1.75575 8.79296 1.41813C10.4903 1.08051 12.2496 1.25379 13.8485 1.91606C15.4473 2.57832 16.8139 3.69983 17.7754 5.13876C18.7368 6.57769 19.25 8.26942 19.25 10C19.25 12.3206 18.3281 14.5462 16.6872 16.1872C15.0462 17.8281 12.8206 18.75 10.5 18.75ZM10.5 2.5C9.01664 2.5 7.5666 2.93987 6.33323 3.76398C5.09986 4.58809 4.13856 5.75943 3.57091 7.12988C3.00325 8.50032 2.85473 10.0083 3.14411 11.4632C3.4335 12.918 4.14781 14.2544 5.1967 15.3033C6.2456 16.3522 7.58197 17.0665 9.03683 17.3559C10.4917 17.6453 11.9997 17.4968 13.3701 16.9291C14.7406 16.3614 15.9119 15.4001 16.736 14.1668C17.5601 12.9334 18 11.4834 18 10C18 8.01088 17.2098 6.10323 15.8033 4.6967C14.3968 3.29018 12.4891 2.5 10.5 2.5Z" fill="#9B9797"/>
<path id="Vector_2" d="M13.3688 13.75L9.875 10.2562V4.375H11.125V9.7375L14.25 12.8687L13.3688 13.75Z" fill="#9B9797"/>
</g>
</svg>
