<svg width="48" height="49" viewBox="0 0 48 49" fill="none" xmlns="http://www.w3.org/2000/svg">
<g id="Group">
<path id="Vector" d="M24 48.5C37.2548 48.5 48 37.7548 48 24.5C48 11.2452 37.2548 0.5 24 0.5C10.7452 0.5 0 11.2452 0 24.5C0 37.7548 10.7452 48.5 24 48.5Z" fill="#3E73C4"/>
<g id="Group_2">
<path id="Vector_2" d="M30.0328 27.6864C30.0328 24.5004 28.1128 23.4084 24.2728 22.9524C21.5308 22.5879 20.9833 21.8604 20.9833 20.5854C20.9833 19.3104 21.8983 18.4914 23.7253 18.4914C25.3708 18.4914 26.2858 19.0374 26.7418 20.4039C26.7894 20.536 26.8762 20.6504 26.9907 20.7317C27.1053 20.8129 27.2419 20.8572 27.3823 20.8584H28.8448C28.9293 20.8606 29.0134 20.8457 29.0919 20.8145C29.1704 20.7833 29.2418 20.7365 29.3017 20.6769C29.3616 20.6173 29.4087 20.5461 29.4403 20.4677C29.4719 20.3893 29.4872 20.3054 29.4853 20.2209V20.1309C29.3066 19.1422 28.8064 18.2403 28.0623 17.5651C27.3183 16.89 26.3722 16.4795 25.3708 16.3974V14.2134C25.3708 13.8489 25.0963 13.5759 24.6403 13.4844H23.2678C22.9033 13.4844 22.6288 13.7574 22.5373 14.2134V16.3074C19.7938 16.6704 18.0583 18.4914 18.0583 20.7684C18.0583 23.7714 19.8853 24.9549 23.7253 25.4109C26.2858 25.8654 27.1078 26.4129 27.1078 27.8694C27.1078 29.3244 25.8283 30.3264 24.0913 30.3264C21.7138 30.3264 20.8918 29.3259 20.6173 27.9594C20.5273 27.5964 20.2513 27.4134 19.9768 27.4134H18.4228C18.3385 27.4113 18.2546 27.4264 18.1763 27.4577C18.0979 27.489 18.0267 27.5358 17.967 27.5954C17.9072 27.655 17.8602 27.7261 17.8287 27.8044C17.7973 27.8827 17.782 27.9665 17.7838 28.0509V28.1409C18.1483 30.4179 19.6123 32.0559 22.6288 32.5119V34.6974C22.6288 35.0604 22.9033 35.3349 23.3593 35.4249H24.7318C25.0963 35.4249 25.3708 35.1519 25.4623 34.6974V32.5104C28.2058 32.0559 30.0328 30.1434 30.0328 27.6849V27.6864Z" fill="white"/>
<path id="Vector_3" d="M19.3379 37.2455C12.2069 34.6955 8.54994 26.7755 11.2019 19.766C12.5729 15.941 15.5894 13.0295 19.3379 11.663C19.7039 11.4815 19.8854 11.2085 19.8854 10.7525V9.4775C19.8854 9.1145 19.7039 8.8415 19.3379 8.75C19.2464 8.75 19.0634 8.75 18.9719 8.84C16.9146 9.48249 15.0046 10.5256 13.3521 11.9093C11.6995 13.2929 10.337 14.9898 9.34291 16.9022C8.34885 18.8147 7.7429 20.9048 7.55995 23.0524C7.37701 25.2 7.62068 27.3625 8.27694 29.4155C9.92094 34.5155 13.8524 38.4305 18.9719 40.0685C19.3379 40.25 19.7039 40.0685 19.7939 39.704C19.8854 39.614 19.8854 39.521 19.8854 39.3395V38.0645C19.8854 37.7915 19.6124 37.4285 19.3379 37.2455ZM29.0279 8.8415C28.6619 8.6585 28.2959 8.8415 28.2059 9.2045C28.1144 9.296 28.1144 9.3875 28.1144 9.569V10.844C28.1144 11.2085 28.3874 11.5715 28.6619 11.7545C35.7929 14.3045 39.4499 22.2245 36.7979 29.234C35.4269 33.059 32.4104 35.9705 28.6619 37.337C28.2959 37.5185 28.1144 37.7915 28.1144 38.2475V39.5225C28.1144 39.8855 28.2959 40.1585 28.6619 40.25C28.7534 40.25 28.9364 40.25 29.0279 40.16C31.0853 39.5175 32.9952 38.4744 34.6478 37.0907C36.3004 35.7071 37.6629 34.0102 38.657 32.0978C39.651 30.1853 40.257 28.0952 40.4399 25.9476C40.6229 23.8 40.3792 21.6375 39.7229 19.5845C38.0789 14.3945 34.0559 10.4795 29.0279 8.8415Z" fill="white"/>
</g>
</g>
</svg>
