<svg width="24" height="24" viewBox="0 0 24 24" fill="none" xmlns="http://www.w3.org/2000/svg">
<g id="ic:outline-discord">
<path id="Vector" d="M19.2701 5.33401C17.9401 4.71401 16.5001 4.26401 15.0001 4.00401C14.987 4.00359 14.9739 4.00606 14.9618 4.01124C14.9497 4.01643 14.9389 4.0242 14.9301 4.03401C14.7501 4.36401 14.5401 4.79401 14.4001 5.12401C12.8091 4.88401 11.1911 4.88401 9.60012 5.12401C9.46012 4.78401 9.25012 4.36401 9.06012 4.03401C9.05012 4.01401 9.02012 4.00401 8.99012 4.00401C7.49012 4.26401 6.06012 4.71401 4.72012 5.33401C4.71012 5.33401 4.70012 5.34401 4.69012 5.35401C1.97012 9.42401 1.22012 13.384 1.59012 17.304C1.59012 17.324 1.60012 17.344 1.62012 17.354C3.42012 18.674 5.15012 19.474 6.86012 20.004C6.89012 20.014 6.92012 20.004 6.93012 19.984C7.33012 19.434 7.69012 18.854 8.00012 18.244C8.02012 18.204 8.00012 18.164 7.96012 18.154C7.39012 17.934 6.85012 17.674 6.32012 17.374C6.28012 17.354 6.28012 17.294 6.31012 17.264C6.42012 17.184 6.53012 17.094 6.64012 17.014C6.66012 16.994 6.69012 16.994 6.71012 17.004C10.1501 18.574 13.8601 18.574 17.2601 17.004C17.2801 16.994 17.3101 16.994 17.3301 17.014C17.4401 17.104 17.5501 17.184 17.6601 17.274C17.7001 17.304 17.7001 17.364 17.6501 17.384C17.1301 17.694 16.5801 17.944 16.0101 18.164C15.9701 18.174 15.9601 18.224 15.9701 18.254C16.2901 18.864 16.6501 19.444 17.0401 19.994C17.0701 20.004 17.1001 20.014 17.1301 20.004C18.8501 19.474 20.5801 18.674 22.3801 17.354C22.4001 17.344 22.4101 17.324 22.4101 17.304C22.8501 12.774 21.6801 8.84401 19.3101 5.35401C19.3001 5.34401 19.2901 5.33401 19.2701 5.33401ZM8.52012 14.914C7.49012 14.914 6.63012 13.964 6.63012 12.794C6.63012 11.624 7.47012 10.674 8.52012 10.674C9.58012 10.674 10.4201 11.634 10.4101 12.794C10.4101 13.964 9.57012 14.914 8.52012 14.914ZM15.4901 14.914C14.4601 14.914 13.6001 13.964 13.6001 12.794C13.6001 11.624 14.4401 10.674 15.4901 10.674C16.5501 10.674 17.3901 11.634 17.3801 12.794C17.3801 13.964 16.5501 14.914 15.4901 14.914Z" fill="white"/>
</g>
</svg>
