<svg width="24" height="24" viewBox="0 0 24 24" fill="none" xmlns="http://www.w3.org/2000/svg">
<g id="Layer_x0020_1">
<g id="_2405588477232">
<g id="Group">
<g id="Group_2">
<path id="Vector" d="M2.16968 7.29601V16.704C2.16968 17.3088 2.48648 17.856 3.01448 18.1632L11.1649 22.8672C11.6833 23.1648 12.3265 23.1648 12.8449 22.8672L20.9953 18.1632C21.5137 17.8656 21.8401 17.3088 21.8401 16.704V7.29601C21.8401 6.69121 21.5233 6.14401 20.9953 5.83681L12.8449 1.13281C12.3265 0.835207 11.6833 0.835207 11.1649 1.13281L3.01448 5.83681C2.49608 6.13441 2.17928 6.69121 2.17928 7.29601H2.16968Z" fill="#213147"/>
<g id="Group_3">
<g id="Group_4">
<g id="Group_5">
<path id="Vector_2" d="M13.776 13.824L12.6144 17.0112C12.5856 17.0976 12.5856 17.1936 12.6144 17.2896L14.6112 22.7712L16.9248 21.4368L14.1504 13.824C14.0832 13.6512 13.8432 13.6512 13.776 13.824Z" fill="#12AAFF"/>
</g>
<g id="Group_6">
<path id="Vector_3" d="M16.1089 8.46725C16.0417 8.29445 15.8017 8.29445 15.7345 8.46725L14.5729 11.6544C14.5441 11.7408 14.5441 11.8368 14.5729 11.9328L17.8465 20.9088L20.1601 19.5744L16.1089 8.47685V8.46725Z" fill="#12AAFF"/>
</g>
</g>
</g>
<g id="Group_7">
<path id="Vector_4" d="M12.0001 1.488C12.0577 1.488 12.1153 1.5072 12.1633 1.536L20.9761 6.624C21.0817 6.6816 21.1393 6.7968 21.1393 6.912V17.088C21.1393 17.2032 21.0721 17.3184 20.9761 17.376L12.1633 22.464C12.1153 22.4928 12.0577 22.512 12.0001 22.512C11.9425 22.512 11.8849 22.4928 11.8369 22.464L3.02408 17.376C2.91848 17.3184 2.86088 17.2032 2.86088 17.088V6.9024C2.86088 6.7872 2.92808 6.672 3.02408 6.6144L11.8369 1.5264C11.8849 1.4976 11.9425 1.4784 12.0001 1.4784V1.488ZM12.0001 0C11.6833 0 11.3761 0.0768 11.0881 0.24L2.27528 5.328C1.70888 5.6544 1.36328 6.2496 1.36328 6.9024V17.0784C1.36328 17.7312 1.70888 18.3264 2.27528 18.6528L11.0881 23.7408C11.3665 23.904 11.6833 23.9808 12.0001 23.9808C12.3169 23.9808 12.6241 23.904 12.9121 23.7408L21.7249 18.6528C22.2913 18.3264 22.6369 17.7312 22.6369 17.0784V6.9024C22.6369 6.2496 22.2913 5.6544 21.7249 5.328L12.9025 0.24C12.6241 0.0768 12.3073 0 11.9905 0H12.0001Z" fill="#9DCCED"/>
</g>
<path id="Vector_5" d="M6.16321 20.9184L6.97921 18.6912L8.61121 20.0448L7.08481 21.4464L6.16321 20.9184Z" fill="#213147"/>
<g id="Group_8">
<path id="Vector_6" d="M11.2512 6.18239H9.01441C8.85121 6.18239 8.69761 6.28799 8.64001 6.44159L3.84961 19.5744L6.16321 20.9088L11.4432 6.44159C11.4912 6.30719 11.3952 6.17279 11.2608 6.17279L11.2512 6.18239Z" fill="white"/>
<path id="Vector_7" d="M15.168 6.18239H12.9312C12.768 6.18239 12.6144 6.28799 12.5568 6.44159L7.08484 21.4368L9.39844 22.7712L15.3504 6.44159C15.3984 6.30719 15.3024 6.17279 15.168 6.17279V6.18239Z" fill="white"/>
</g>
</g>
</g>
</g>
</g>
</svg>
