<svg width="24" height="24" viewBox="0 0 24 24" fill="none" xmlns="http://www.w3.org/2000/svg">
<g id="mdi:github">
<path id="Vector" d="M12 2.00403C10.6868 2.00403 9.38642 2.26269 8.17317 2.76523C6.95991 3.26778 5.85752 4.00437 4.92893 4.93296C3.05357 6.80832 2 9.35186 2 12.004C2 16.424 4.87 20.174 8.84 21.504C9.34 21.584 9.5 21.274 9.5 21.004V19.314C6.73 19.914 6.14 17.974 6.14 17.974C5.68 16.814 5.03 16.504 5.03 16.504C4.12 15.884 5.1 15.904 5.1 15.904C6.1 15.974 6.63 16.934 6.63 16.934C7.5 18.454 8.97 18.004 9.54 17.764C9.63 17.114 9.89 16.674 10.17 16.424C7.95 16.174 5.62 15.314 5.62 11.504C5.62 10.394 6 9.50403 6.65 8.79403C6.55 8.54403 6.2 7.50403 6.75 6.15403C6.75 6.15403 7.59 5.88403 9.5 7.17403C10.29 6.95403 11.15 6.84403 12 6.84403C12.85 6.84403 13.71 6.95403 14.5 7.17403C16.41 5.88403 17.25 6.15403 17.25 6.15403C17.8 7.50403 17.45 8.54403 17.35 8.79403C18 9.50403 18.38 10.394 18.38 11.504C18.38 15.324 16.04 16.164 13.81 16.414C14.17 16.724 14.5 17.334 14.5 18.264V21.004C14.5 21.274 14.66 21.594 15.17 21.504C19.14 20.164 22 16.424 22 12.004C22 10.6908 21.7413 9.39045 21.2388 8.17719C20.7362 6.96394 19.9997 5.86155 19.0711 4.93296C18.1425 4.00437 17.0401 3.26778 15.8268 2.76523C14.6136 2.26269 13.3132 2.00403 12 2.00403Z" fill="white"/>
</g>
</svg>
