<svg width="28" height="28" viewBox="0 0 28 28" fill="none" xmlns="http://www.w3.org/2000/svg">
<g id="radix-icons:cross-2">
<path id="Vector" fill-rule="evenodd" clip-rule="evenodd" d="M21.9931 7.52642C22.0929 7.42677 22.172 7.30845 22.2261 7.17821C22.2801 7.04797 22.308 6.90835 22.3081 6.76735C22.3081 6.62634 22.2804 6.48669 22.2266 6.35638C22.1727 6.22608 22.0937 6.10766 21.994 6.00789C21.8944 5.90812 21.7761 5.82895 21.6458 5.77491C21.5156 5.72087 21.376 5.69301 21.2349 5.69292C21.0939 5.69283 20.9543 5.72052 20.824 5.7744C20.6937 5.82829 20.5753 5.90731 20.4755 6.00695L14 12.4824L7.52642 6.00695C7.32493 5.80546 7.05164 5.69226 6.76669 5.69226C6.48173 5.69226 6.20845 5.80546 6.00695 6.00695C5.80546 6.20845 5.69226 6.48173 5.69226 6.76669C5.69226 7.05164 5.80546 7.32493 6.00695 7.52642L12.4824 14L6.00695 20.4736C5.90718 20.5734 5.82804 20.6918 5.77405 20.8222C5.72005 20.9525 5.69226 21.0923 5.69226 21.2334C5.69226 21.3744 5.72005 21.5142 5.77405 21.6445C5.82804 21.7749 5.90718 21.8933 6.00695 21.9931C6.20845 22.1946 6.48173 22.3078 6.76669 22.3078C6.90778 22.3078 7.0475 22.28 7.17785 22.226C7.30821 22.172 7.42665 22.0929 7.52642 21.9931L14 15.5176L20.4755 21.9931C20.677 22.1943 20.9502 22.3073 21.2349 22.3071C21.5197 22.3069 21.7928 22.1936 21.994 21.9922C22.1953 21.7907 22.3082 21.5175 22.3081 21.2327C22.3079 20.9479 22.1946 20.6749 21.9931 20.4736L15.5176 14L21.9931 7.52642Z" fill="white"/>
</g>
</svg>
